<svg width="583" height="583" viewBox="0 0 583 583" fill="none" xmlns="http://www.w3.org/2000/svg">
<g clip-path="url(#clip0_2107_118)">
<path d="M202.998 358.238C201.717 358.238 200.577 357.427 200.157 356.217L156.338 229.989C154.981 226.08 157.883 222 162.021 222H176.878C178.18 222 179.334 222.837 179.738 224.075L215.845 334.689L230.442 289.146L209.7 230.007C208.328 226.095 211.231 222 215.377 222H227.601C230.22 222 232.538 223.695 233.333 226.191L247.179 269.683L260.842 226.212C261.63 223.705 263.953 222 266.581 222H278.959C283.111 222 286.015 226.107 284.63 230.022L263.723 289.146L278.32 334.689L314.427 224.075C314.831 222.837 315.985 222 317.286 222H332.144C336.281 222 339.184 226.08 337.827 229.989L294.008 356.217C293.588 357.427 292.447 358.238 291.166 358.238H265.888C264.595 358.238 263.446 357.411 263.036 356.185L247.179 308.803L231.133 356.195C230.72 357.416 229.574 358.238 228.284 358.238H202.998Z" fill="#031D16"/>
<path fill-rule="evenodd" clip-rule="evenodd" d="M379.615 360.574C369.494 360.574 360.736 358.368 353.34 353.956C346.074 349.545 340.43 343.512 336.408 335.856C332.386 328.201 330.375 319.573 330.375 309.971C330.375 299.721 332.451 290.833 336.603 283.307C340.755 275.782 346.529 269.943 353.924 265.791C361.32 261.509 369.884 259.368 379.615 259.368C389.217 259.368 397.585 261.444 404.722 265.596C411.988 269.748 417.632 275.457 421.654 282.723C425.806 289.989 427.882 298.358 427.882 307.83C427.882 309.517 427.817 311.204 427.688 312.89C427.631 313.568 427.562 314.233 427.481 314.885C427.302 316.328 426.047 317.367 424.593 317.367H355.481C355.871 321.908 357.038 325.93 358.985 329.434C361.061 332.807 363.785 335.467 367.159 337.413C370.662 339.23 374.62 340.138 379.031 340.138C383.572 340.138 387.465 339.165 390.709 337.219C393.598 335.552 395.964 333.123 397.806 329.933C398.383 328.934 399.421 328.266 400.574 328.266H421.238C423.274 328.266 424.719 330.248 423.931 332.125C422.141 336.39 419.696 340.423 416.594 344.225C412.572 349.156 407.446 353.113 401.218 356.097C395.12 359.082 387.919 360.574 379.615 360.574ZM359.59 298.667C364.042 298.026 368.472 297.39 372.962 296.75L370.993 306.11C370.579 308.107 372.754 309.632 374.49 308.557L406.548 288.586C408.263 287.515 407.891 284.923 405.948 284.384L369.556 274.299C367.585 273.753 365.928 275.832 366.889 277.626C367.642 279.024 368.392 280.422 369.143 281.82C369.893 283.218 370.644 284.616 371.396 286.014L358.031 287.942C356.77 288.128 355.889 289.302 356.073 290.573L356.972 296.702C357.146 297.97 358.32 298.85 359.59 298.667Z" fill="#031D16"/>
</g>
<defs>
<clipPath id="clip0_2107_118">
<rect width="583" height="583" fill="white"/>
</clipPath>
</defs>
</svg>
