<svg width="470" height="142" viewBox="0 0 470 142" fill="none" xmlns="http://www.w3.org/2000/svg">
<path d="M41.8174 97.9851C42.3254 99.4485 43.7044 100.43 45.2534 100.43H58.78C60.3393 100.43 61.7251 99.4357 62.2251 97.9588L71.9816 69.1431L81.6206 97.9466C82.1169 99.4297 83.5058 100.43 85.0698 100.43H98.5866C100.136 100.43 101.515 99.4485 102.023 97.9851L129.429 19.037C130.249 16.6738 128.494 14.207 125.993 14.207H117.608C116.035 14.207 114.639 15.2194 114.151 16.7156L91.6896 85.5253L82.4515 56.7024L95.7638 19.0568C96.6008 16.69 94.8452 14.207 92.3347 14.207H84.1356C82.5469 14.207 81.142 15.2381 80.6657 16.7537L71.9816 44.3849L63.1806 16.7408C62.7002 15.2318 61.2985 14.207 59.7149 14.207H51.6144C49.108 14.207 47.3527 16.6828 48.1822 19.048L61.3886 56.7024L52.1504 85.5253L29.6892 16.7156C29.2008 15.2194 27.8055 14.207 26.2316 14.207H17.8472C15.3456 14.207 13.5908 16.6738 14.4111 19.037L41.8174 97.9851Z" fill="#F6FEFC"/>
<path fill-rule="evenodd" clip-rule="evenodd" d="M139.169 97.7197C143.849 100.512 149.392 101.908 155.797 101.908C161.053 101.908 165.61 100.963 169.47 99.0746C173.411 97.1859 176.655 94.6814 179.201 91.5609C180.635 89.8021 181.849 87.965 182.84 86.0496C183.971 83.8634 182.231 81.4606 179.769 81.4606H167.869C166.637 84.0062 164.953 85.8949 162.818 87.1266C160.765 88.3584 158.302 88.9742 155.428 88.9742C152.636 88.9742 150.131 88.3994 147.914 87.2498C145.779 86.018 144.055 84.3347 142.741 82.1996C141.509 79.9825 140.77 77.4369 140.524 74.5628H182.994C184.649 74.5628 186.084 73.3791 186.222 71.7297C186.304 70.6622 186.345 69.5947 186.345 68.5272C186.345 62.5327 185.031 57.2362 182.403 52.6376C179.858 48.0391 176.285 44.426 171.687 41.7982C167.171 39.1705 161.874 37.8566 155.797 37.8566C149.639 37.8566 144.219 39.2116 139.538 41.9214C134.858 44.5491 131.203 48.2444 128.576 53.0072C125.948 57.7699 124.634 63.3949 124.634 69.8821C124.634 75.9588 125.907 81.4195 128.453 86.2644C130.998 91.1093 134.57 94.9277 139.169 97.7197ZM143.458 62.6695C146.15 62.2823 148.828 61.8975 151.543 61.5108L150.352 67.1699C150.102 68.3773 151.417 69.2993 152.466 68.6489L171.849 56.5749C172.886 55.927 172.661 54.3599 171.486 54.0343L149.484 47.937C148.292 47.6068 147.29 48.8639 147.871 49.9481C148.326 50.7937 148.78 51.639 149.234 52.4843C149.688 53.3293 150.141 54.1743 150.596 55.0197L142.516 56.1855C141.753 56.2979 141.221 57.0076 141.332 57.7757L141.875 61.4814C141.981 62.248 142.69 62.7804 143.458 62.6695Z" fill="#F6FEFC"/>
<path fill-rule="evenodd" clip-rule="evenodd" d="M230.901 101.908C226.796 101.908 222.936 101.128 219.323 99.5673C215.792 97.925 212.836 95.4204 210.454 92.0536V100.43H194.688V14.207H199.601C205.527 14.207 210.331 19.0109 210.331 24.9367V47.957C212.63 44.5902 215.587 42.0856 219.2 40.4433C222.813 38.7189 226.713 37.8566 230.901 37.8566C236.732 37.8566 241.741 39.2937 245.929 42.1678C250.199 44.9597 253.483 48.7781 255.783 53.623C258.082 58.3858 259.232 63.7234 259.232 69.6358C259.232 75.4661 258.082 80.8447 255.783 85.7717C253.483 90.6987 250.199 94.6403 245.929 97.5965C241.741 100.471 236.732 101.908 230.901 101.908ZM226.713 88.112C229.998 88.112 232.872 87.2909 235.336 85.6485C237.799 84.0062 239.729 81.789 241.125 78.9971C242.521 76.123 243.219 73.0026 243.219 69.6358C243.219 65.7763 242.439 62.5327 240.879 59.9049C239.4 57.1951 237.389 55.1422 234.843 53.7462C232.379 52.3502 229.67 51.6522 226.713 51.6522C223.511 51.6522 220.678 52.4323 218.214 53.9926C215.833 55.5528 213.944 57.7289 212.548 60.5208C211.152 63.2307 210.454 66.3511 210.454 69.8821C210.454 73.4953 211.152 76.6978 212.548 79.4898C214.026 82.1996 215.997 84.3347 218.461 85.8949C220.924 87.373 223.675 88.112 226.713 88.112Z" fill="#F6FEFC"/>
<path d="M267.703 84.6631C267.703 93.3707 274.762 100.43 283.469 100.43V29.9734C283.469 21.2659 276.41 14.207 267.703 14.207V84.6631Z" fill="#F6FEFC"/>
<path d="M300.313 127.528L313.739 97.5965L288.981 39.3347H306.595L322.362 80.9679L338.498 39.3347H362.166V34.6541C362.166 27.2636 364.014 22.0081 367.709 18.8877C371.487 15.7672 376.578 14.207 382.983 14.207H383.792C386.202 14.207 388.156 16.1611 388.156 18.5716V24.9233C388.156 26.4199 386.943 27.6331 385.447 27.6331C382.737 27.6331 380.807 28.1669 379.657 29.2344C378.508 30.3019 377.933 32.1085 377.933 34.6541V39.3347H388.895V52.5145H377.933V100.43H362.166V52.5145H355.022V39.5747L316.942 127.528H300.313Z" fill="#F6FEFC"/>
<path fill-rule="evenodd" clip-rule="evenodd" d="M424.761 101.908C418.356 101.908 412.814 100.512 408.133 97.7197C403.534 94.9277 399.962 91.1093 397.417 86.2644C394.871 81.4195 393.598 75.9588 393.598 69.8821C393.598 63.3949 394.912 57.7699 397.54 53.0072C400.168 48.2444 403.822 44.5491 408.502 41.9214C413.183 39.2116 418.603 37.8566 424.761 37.8566C430.838 37.8566 436.135 39.1705 440.651 41.7982C445.25 44.426 448.822 48.0391 451.367 52.6376C453.995 57.2362 455.309 62.5327 455.309 68.5272C455.309 69.5947 455.268 70.6622 455.186 71.7297C455.048 73.3791 453.613 74.5628 451.958 74.5628H409.488C409.734 77.4369 410.473 79.9825 411.705 82.1996C413.019 84.3347 414.743 86.018 416.878 87.2498C419.095 88.3994 421.6 88.9742 424.392 88.9742C427.266 88.9742 429.729 88.3584 431.782 87.1266C433.322 86.2382 434.627 85.0081 435.697 83.4363C436.482 82.2834 437.719 81.4606 439.113 81.4606H448.733C451.195 81.4606 452.935 83.8634 451.804 86.0496C450.813 87.965 449.6 89.8021 448.165 91.5609C445.619 94.6814 442.375 97.1859 438.434 99.0746C434.574 100.963 430.017 101.908 424.761 101.908ZM409.611 64.0929H439.05C438.968 59.9871 437.448 56.7435 434.492 54.3621C431.618 51.9807 428.21 50.79 424.269 50.79C420.902 50.79 417.782 51.8575 414.907 53.9926C412.033 56.0455 410.268 59.4123 409.611 64.0929Z" fill="#F6FEFC"/>
</svg>
