<svg viewBox="0 0 24 24" fill="none" xmlns="http://www.w3.org/2000/svg"><path d="M11.52 1.28L2.28 4.86c-.42.16-.42.76 0 .92l9.26 3.58c.28.1.6.1.88 0l9.26-3.58c.42-.16.42-.76 0-.92l-9.26-3.58c-.28-.1-.6-.1-.88 0z" fill="#F6FEFC" opacity=".9"/><path d="M12.68 11.16V20.9c0 .38.4.64.76.48l9.48-4.16c.2-.08.32-.28.32-.5V7.08c0-.38-.4-.64-.76-.48l-9.48 4.16a.54.54 0 00-.32.5v-.1z" fill="#F6FEFC" opacity=".6"/><path d="M11.08 11.28L1.26 6.7c-.38-.18-.84.1-.84.52v9.56c0 .2.12.4.3.48l9.84 4.58c.38.18.84-.1.84-.52v-9.56a.54.54 0 00-.32-.48z" fill="#F6FEFC" opacity=".7"/></svg>
