<svg viewBox="0 0 256 206" xmlns="http://www.w3.org/2000/svg"><path d="M170.252 56.819l22.253-22.253 1.483-9.37C153.437-11.677 88.976-7.496 52.42 33.92 42.267 45.423 34.734 59.764 30.717 74.573l7.97-1.123 44.505-7.34 3.436-3.513c19.797-21.742 53.27-24.667 76.128-6.168l7.496.39z" fill="currentColor" fill-opacity=".6"/><path d="M224.205 73.918a100.249 100.249 0 00-30.217-48.722l-31.232 31.232a55.515 55.515 0 0120.379 44.037v5.544c15.35 0 27.797 12.445 27.797 27.796 0 15.352-12.446 27.485-27.797 27.485h-55.671l-5.466 5.934v33.34l5.466 5.231h55.67c39.93.311 72.553-31.494 72.865-71.424a72.303 72.303 0 00-31.794-60.453z" fill="currentColor"/><path d="M71.87 205.796h55.593V161.29H71.87a27.275 27.275 0 01-11.475-2.534l-7.884 2.456-22.33 22.253-1.949 7.574c12.568 9.46 27.97 14.679 43.638 14.757z" fill="currentColor" fill-opacity=".6"/><path d="M71.87 61.427C31.94 61.748-.685 94.992.004 134.923a72.301 72.301 0 0028.228 56.831l32.163-32.162a27.796 27.796 0 01-16.392-25.263c0-15.351 12.524-27.796 27.875-27.796 10.99 0 20.535 6.401 25.028 15.673l32.162-32.162a72.194 72.194 0 00-57.198-28.617z" fill="currentColor"/></svg>
