<svg viewBox="0 0 24 24" fill="none" xmlns="http://www.w3.org/2000/svg"><path d="M18.164 7.93V5.084a2.198 2.198 0 001.267-1.984v-.066A2.2 2.2 0 0017.232.836h-.066a2.2 2.2 0 00-2.2 2.198v.066c0 .87.513 1.617 1.25 1.971V7.93a6.152 6.152 0 00-2.89 1.244l-7.634-5.94a2.456 2.456 0 00.07-.568A2.46 2.46 0 003.3 0.207a2.46 2.46 0 00-2.46 2.46 2.46 2.46 0 002.46 2.46c.508 0 .98-.158 1.376-.424l7.53 5.86a6.2 6.2 0 00-.96 3.313c0 1.226.36 2.37.975 3.336l-2.28 2.28a1.846 1.846 0 00-.543-.087 1.856 1.856 0 00-1.856 1.856A1.856 1.856 0 009.4 23.117a1.856 1.856 0 001.856-1.856c0-.192-.032-.376-.083-.55l2.234-2.234a6.196 6.196 0 003.71 1.234 6.22 6.22 0 006.216-6.216 6.22 6.22 0 00-5.17-6.564zm-1.048 9.59a3.03 3.03 0 01-3.034-3.034 3.03 3.03 0 013.034-3.034 3.03 3.03 0 013.034 3.034 3.03 3.03 0 01-3.034 3.034z" fill="#F6FEFC"/></svg>
