<svg viewBox="0 0 100 100" xmlns="http://www.w3.org/2000/svg"><path d="M6.017 4.313l55.333-4.087c6.797-.583 8.543-.19 12.817 2.917l17.663 12.443c2.913 2.14 3.883 2.723 3.883 5.053v68.243c0 4.277-1.553 6.807-6.99 7.193L24.467 99.967c-4.08.193-6.023-.39-8.16-3.113L3.3 79.94c-2.333-3.113-3.3-5.443-3.3-8.167V11.113c0-3.497 1.553-6.413 6.017-6.8z" fill="currentColor"/><path d="M61.35 8.317l-55.333 4.087C1.553 12.797 0 15.713 0 19.21v60.66c0 2.724.967 5.054 3.3 8.167l13.007 16.913c2.137 2.723 4.08 3.307 8.16 3.113l64.257-3.89c5.437-.387 6.99-2.917 6.99-7.194V20.443c0-2.33-.97-2.913-3.883-5.053L74.167 2.947c-4.274-3.107-6.02-3.5-12.817-2.917v8.287z" fill="#fff"/><path fill-rule="evenodd" clip-rule="evenodd" d="M25.723 19.04c-4.467.387-5.48.472-8.08-1.343L10.92 12.65c-.777-.583-.387-1.363 1.167-1.556l54.14-3.89c4.277-.387 6.413.777 8.163 2.137l8.353 5.83c.39.193.97 1.166-.193 1.166l-55.633 3.31-.194-.607zm-5.247 7.78v64.843c0 3.497 1.75 4.86 5.64 4.667l58.93-3.497c3.89-.193 4.47-2.527 4.47-5.247v-64.26c0-2.723-1.167-4.083-3.5-3.89l-61.623 3.693c-2.53.193-3.917 1.553-3.917 3.69zm57.77 2.527c.387 1.553 0 3.113-1.553 3.303l-2.527.387v47.783c-2.333 1.167-4.47 1.943-6.22 1.943-2.917 0-3.693-.97-5.83-3.497L42.307 45.193v31.47l5.443 1.167s0 3.113-4.277 3.113l-11.667.583c-.387-.777 0-2.723 1.357-3.11l3.11-.777V37.353l-4.277-.387c-.387-1.553.583-3.887 3.11-4.08l12.443-.777 20.423 31.277V35.42l-4.47-.583c-.387-1.943 1.167-3.303 3.11-3.497l11.663-.777v-.216z" fill="currentColor"/></svg>
