<svg viewBox="0 0 24 24" fill="none" xmlns="http://www.w3.org/2000/svg"><path d="M4.459 4.208c.746.606 1.026.56 2.428.466l13.215-.793c.28 0 .047-.28-.046-.326L18.09 2.11c-.466-.373-.84-.186-1.353.047L3.946 3.322c-.466.093-.56.28-.56.466l.02.42z" fill="#F6FEFC" opacity=".9"/><path d="M5.242 7.055v13.7c0 .747.373 1.027 1.214.98l14.523-.84c.84-.047.933-.56.933-1.167V6.448c0-.606-.233-.886-.746-.84L5.988 6.449c-.56.047-.746.28-.746.606z" fill="#F6FEFC" opacity=".4"/><path d="M19.005 7.635c.093.42 0 .84-.42.886l-.7.14v10.12c-.607.327-1.167.514-1.634.514-.746 0-.933-.234-1.493-.934l-4.574-7.186v6.953l1.447.327s0 .84-1.167.84l-3.22.187c-.093-.187 0-.653.327-.747l.84-.233V9.855L6.97 9.715c-.093-.42.14-1.027.793-1.073l3.453-.234 4.76 7.28v-6.44l-1.213-.14c-.094-.513.28-.886.746-.933l3.497-.46z" fill="#F6FEFC"/></svg>
