<svg viewBox="0 0 320 320" xmlns="http://www.w3.org/2000/svg"><path d="M297.06 130.97c7.26-21.79 4.76-45.66-6.85-65.48-17.46-30.4-52.56-46.04-86.84-38.68C161.3 8.12 138.64 2.09 116.38 0c-26.53-.1-51.87 13.79-63.85 37.01-21.53 2.43-41.21 14.36-53.27 32.62C-14.2 92.46-1.2 123.67 20.5 147.07c-7.26 21.79-4.76 45.66 6.85 65.48 17.46 30.4 52.56 46.04 86.84 38.68 10.09 14.16 24.16 25.2 41.01 31.82 22.28 8.79 47.42 8.69 69.7-.1 26.53.1 51.87-13.79 63.85-37.01 21.53-2.43 41.21-14.36 53.27-32.62 13.46-22.83.46-54.04-20.28-77.45l-.68-4.9zM160 240.96c-44.18 0-80-35.82-80-80s35.82-80 80-80 80 35.82 80 80-35.82 80-80 80z" fill="currentColor"/></svg>
