<svg viewBox="0 0 24 24" fill="none" xmlns="http://www.w3.org/2000/svg"><path d="M5.042 15.165a2.528 2.528 0 01-2.52 2.523A2.528 2.528 0 010 15.165a2.527 2.527 0 012.522-2.52h2.52v2.52zm1.268 0a2.527 2.527 0 012.521-2.52 2.527 2.527 0 012.521 2.52v6.313A2.528 2.528 0 018.831 24a2.528 2.528 0 01-2.52-2.522v-6.313zM8.831 5.042a2.528 2.528 0 01-2.52-2.52A2.528 2.528 0 018.83 0a2.528 2.528 0 012.521 2.522v2.52H8.831zm0 1.268a2.528 2.528 0 012.521 2.521 2.528 2.528 0 01-2.52 2.521H2.522A2.528 2.528 0 010 8.831a2.528 2.528 0 012.522-2.52h6.309zm10.123 2.521a2.528 2.528 0 012.52-2.52A2.528 2.528 0 0124 8.832a2.528 2.528 0 01-2.522 2.52h-2.52V8.832zm-1.268 0a2.528 2.528 0 01-2.521 2.521 2.527 2.527 0 01-2.521-2.52V2.521A2.527 2.527 0 0115.165 0a2.528 2.528 0 012.521 2.522v6.31zm-2.521 10.122a2.528 2.528 0 012.521 2.522A2.528 2.528 0 0115.165 24a2.527 2.527 0 01-2.521-2.522v-2.522h2.52zm0-1.268a2.527 2.527 0 01-2.521-2.52 2.526 2.526 0 012.52-2.522h6.31A2.527 2.527 0 0124 15.165a2.528 2.528 0 01-2.522 2.52h-6.31z" fill="#F6FEFC"/></svg>
