<svg viewBox="0 0 127 127" xmlns="http://www.w3.org/2000/svg"><path d="M27.2 80c0 7.3-5.9 13.2-13.2 13.2S.8 87.3.8 80s5.9-13.2 13.2-13.2h13.2V80zm6.6 0c0-7.3 5.9-13.2 13.2-13.2s13.2 5.9 13.2 13.2v33c0 7.3-5.9 13.2-13.2 13.2s-13.2-5.9-13.2-13.2V80z" fill="currentColor"/><path d="M47 27c-7.3 0-13.2-5.9-13.2-13.2S39.7.6 47 .6s13.2 5.9 13.2 13.2V27H47zm0 6.7c7.3 0 13.2 5.9 13.2 13.2s-5.9 13.2-13.2 13.2H13.9C6.6 60.1.7 54.2.7 46.9s5.9-13.2 13.2-13.2H47z" fill="currentColor"/><path d="M99.9 46.9c0-7.3 5.9-13.2 13.2-13.2s13.2 5.9 13.2 13.2-5.9 13.2-13.2 13.2H99.9V46.9zm-6.6 0c0 7.3-5.9 13.2-13.2 13.2s-13.2-5.9-13.2-13.2V13.8C66.9 6.5 72.8.6 80.1.6s13.2 5.9 13.2 13.2v33.1z" fill="currentColor"/><path d="M80.1 99.8c7.3 0 13.2 5.9 13.2 13.2s-5.9 13.2-13.2 13.2-13.2-5.9-13.2-13.2V99.8h13.2zm0-6.6c-7.3 0-13.2-5.9-13.2-13.2s5.9-13.2 13.2-13.2h33.1c7.3 0 13.2 5.9 13.2 13.2s-5.9 13.2-13.2 13.2H80.1z" fill="currentColor"/></svg>
