<svg viewBox="0 0 24 24" fill="none" xmlns="http://www.w3.org/2000/svg"><path d="M13.976 9.15c-2.172-.806-3.356-1.426-3.356-2.409 0-.831.683-1.305 1.901-1.305 2.227 0 4.515.858 6.09 1.631l.89-5.494C18.252.975 15.697 0 12.165 0 9.667 0 7.589.654 6.104 1.872 4.56 3.147 3.757 4.992 3.757 7.218c0 4.039 2.467 5.76 6.476 7.219 2.585.92 3.445 1.574 3.445 2.583 0 .98-.84 1.545-2.354 1.545-1.875 0-4.965-.921-7.076-2.19l-.891 5.549C5.528 22.902 8.635 24 12.108 24c2.625 0 4.734-.624 6.223-1.853 1.654-1.36 2.446-3.322 2.446-5.774 0-4.126-2.517-5.821-6.801-7.223z" fill="#F6FEFC"/></svg>
