<svg viewBox="0 0 512 214" xmlns="http://www.w3.org/2000/svg"><path fill="currentColor" d="M35.989 84.927c0-7.937 6.498-11.128 17.27-11.128 15.439 0 34.95 4.675 50.388 13.004V39.6C86.61 32.84 69.787 30 52.964 30 21.227 30 0 47.537 0 76.989c0 45.591 62.725 38.34 62.725 58.014 0 9.406-8.168 12.501-19.59 12.501-16.94 0-38.574-6.965-55.678-16.371v48.182c18.95 8.168 38.181 11.553 55.678 11.553 32.61 0 54.921-16.143 54.921-46.6-.162-49.214-63.05-40.55-63.05-59.351l.984.01zM134.7 133.7l-1.96 10.05h42.058V30.814h-47.896l7.797 102.886h.001zM512 107.02L453.66 30.82h-46.116v158.925h42.028V87.948l62.428 101.798H512V30.814h-.006L512 107.02h.001-.001z"/></svg>
