<svg viewBox="0 0 256 153" xmlns="http://www.w3.org/2000/svg"><path d="M256 0v152.348H0V0h256Zm-43.926 42.61c-11.36 0-20.048 5.022-26.07 12.378V43.624h-23.71v64.815h23.844V79.893c0-10.754 6.967-16.044 15.118-16.044 7.237 0 13.063 4.95 13.063 14.916v29.674h23.844V73.35c0-19.207-12.461-30.74-26.089-30.74Zm-69.393.338c-22.93 0-41.6 18.402-41.6 41.196 0 22.794 18.67 41.196 41.6 41.196 22.93 0 41.6-18.402 41.6-41.196 0-22.794-18.67-41.196-41.6-41.196Zm-73.236-.338c-9.618 0-18.028 4.344-23.508 11.362L44.93 43.624H22.23L0 108.44h24.584l10.485-33.13 11.497 33.13h21.421l11.496-33.13 10.486 33.13h24.584L92.287 43.624H69.588l-1.075 10.348c-5.48-7.018-13.89-11.362-23.508-11.362Zm73.236 21.583c10.282 0 18.535 8.186 18.535 18.267 0 10.081-8.253 18.267-18.535 18.267-10.281 0-18.534-8.186-18.534-18.267 0-10.08 8.253-18.267 18.534-18.267Z" fill="currentColor"/></svg>
