<svg xmlns="http://www.w3.org/2000/svg" viewBox="0 0 24 24"><path fill="#4353FF" d="M24 4.515v14.97c0 .82-.452 1.575-1.177 1.964l-9.708 5.053c-.71.37-1.55.38-2.268.025L1.136 21.449A2.209 2.209 0 0 1 0 19.485V4.515c0-.82.453-1.575 1.178-1.964L10.886.498a2.212 2.212 0 0 1 2.27.025l9.71 5.078A2.21 2.21 0 0 1 24 7.515zM17.35 9.04c-.206 0-.363.08-.474.168-.11.088-.2.208-.267.36l-2.627 5.95-2.627-5.95c-.13-.303-.385-.528-.741-.528H8.79c-.198 0-.356.072-.474.164-.124.097-.206.222-.254.37l-1.268 4.016-1.27-4.016c-.126-.392-.476-.534-.86-.534-.437 0-.748.28-.748.664 0 .107.02.218.065.338l1.912 5.605c.137.395.472.625.855.625h1.973c.196 0 .356-.073.474-.166.126-.097.21-.223.26-.37l.957-3.023.957 3.023c.13.304.385.537.734.537h1.973c.195 0 .355-.074.474-.167.128-.098.212-.224.262-.372l1.91-5.605c.046-.12.066-.23.066-.337.002-.384-.31-.664-.748-.664z"/></svg>
