<svg width="76" height="76" viewBox="0 0 76 76" fill="none" xmlns="http://www.w3.org/2000/svg">
<rect x="0.185547" width="75.4689" height="75.4689" rx="37.7344" fill="#FFD99A"/>
<g clip-path="url(#clip0_2476_710)">
<path d="M56.9363 27.7062V22.1348C56.9363 20.2916 55.4367 18.792 53.5934 18.792H22.2452C20.4019 18.792 18.9023 20.2916 18.9023 22.1348V27.7062H56.9363ZM44.6049 23.2491H51.2906C51.906 23.2491 52.4049 23.748 52.4049 24.3634C52.4049 24.9787 51.906 25.4776 51.2906 25.4776H44.6049C43.9896 25.4776 43.4907 24.9787 43.4907 24.3634C43.4907 23.748 43.9896 23.2491 44.6049 23.2491ZM33.4622 23.2491C34.0776 23.2491 34.5765 23.748 34.5765 24.3634C34.5765 24.9787 34.0776 25.4776 33.4622 25.4776C32.8468 25.4776 32.3479 24.9787 32.3479 24.3634C32.3479 23.748 32.8468 23.2491 33.4622 23.2491ZM29.0051 23.2491C29.6205 23.2491 30.1194 23.748 30.1194 24.3634C30.1194 24.9787 29.6205 25.4776 29.0051 25.4776C28.3897 25.4776 27.8908 24.9787 27.8908 24.3634C27.8908 23.748 28.3897 23.2491 29.0051 23.2491ZM24.548 23.2491C25.1634 23.2491 25.6623 23.748 25.6623 24.3634C25.6623 24.9787 25.1634 25.4776 24.548 25.4776C23.9326 25.4776 23.4337 24.9787 23.4337 24.3634C23.4337 23.748 23.9326 23.2491 24.548 23.2491Z" fill="#247459"/>
<path d="M18.9023 29.9346V53.3343C18.9023 55.1776 20.4019 56.6772 22.2452 56.6772H53.5934C55.4367 56.6772 56.9363 55.1776 56.9363 53.3343V29.9346H18.9023ZM31.9297 45.7786C32.4103 46.163 32.4882 46.8642 32.1038 47.3447C31.7194 47.8252 31.0181 47.9032 30.5376 47.5187L24.9662 43.0616C24.4092 42.6161 24.4088 41.7673 24.9662 41.3214L30.5376 36.8643C31.0179 36.4799 31.7193 36.5577 32.1038 37.0383C32.4882 37.5188 32.4103 38.2201 31.9297 38.6044L27.446 42.1916L31.9297 45.7786ZM42.2863 34.8306L35.6006 50.4305C35.3582 50.996 34.7034 51.2582 34.1375 51.0157C33.5719 50.7733 33.3098 50.1182 33.5523 49.5526L40.238 33.9527C40.4804 33.3871 41.1355 33.1251 41.7011 33.3675C42.2667 33.6099 42.5288 34.2649 42.2863 34.8306ZM50.8724 43.0617L45.301 47.5188C44.8213 47.9027 44.1199 47.826 43.7348 47.3448C43.3504 46.8643 43.4283 46.163 43.9089 45.7787L48.3926 42.1916L43.9089 38.6046C43.4283 38.2202 43.3504 37.519 43.7348 37.0384C44.1192 36.5579 44.8204 36.48 45.301 36.8645L50.8724 41.3216C51.4294 41.7671 51.4298 42.6158 50.8724 43.0617Z" fill="#247459"/>
</g>
<defs>
<clipPath id="clip0_2476_710">
<rect width="38.0339" height="38.0339" fill="white" transform="translate(18.9023 18.7178)"/>
</clipPath>
</defs>
</svg>
