<svg width="77" height="76" viewBox="0 0 77 76" fill="none" xmlns="http://www.w3.org/2000/svg">
<rect x="0.939453" y="0.444336" width="75.4689" height="75.4689" rx="37.7344" fill="#FFD99A"/>
<g clip-path="url(#clip0_2476_703)">
<path d="M20.67 25.8083C21.0182 27.1849 21.7324 28.4434 22.7362 29.4472L23.6553 30.3544L30.8639 23.1462L29.9449 22.2389C28.9403 21.2352 27.6825 20.521 26.3058 20.1728L19.3913 18.4248C19.2593 18.3916 19.1195 18.4302 19.023 18.5259C18.9273 18.6224 18.8887 18.7622 18.9219 18.8942L20.67 25.8083Z" fill="#247459"/>
<path d="M28.8104 35.4438L36.0183 28.2363L32.5112 24.7734L25.3027 31.9814L28.8104 35.4438Z" fill="#247459"/>
<path d="M41.4062 48.1201L48.6131 40.9133L52.9329 45.2332L45.7261 52.44L41.4062 48.1201Z" fill="#247459"/>
<path d="M54.5777 46.8721L47.3691 54.0801L49.7415 56.4525C50.7044 57.4146 51.9846 57.945 53.3459 57.945C54.7071 57.945 55.9874 57.4146 56.9502 56.4525C58.937 54.4652 58.937 51.2316 56.9502 49.2443L54.5777 46.8721Z" fill="#247459"/>
<path d="M36.742 39.6371C37.1944 39.1848 37.9277 39.1848 38.3799 39.6371L42.3694 43.6263L44.125 41.8707L41.8478 39.5938C41.3954 39.1415 41.3954 38.4083 41.8478 37.9559C42.3001 37.5037 43.0334 37.5035 43.4857 37.9559L45.763 40.2329L47.5495 38.4464L43.5601 34.4572C43.1077 34.005 43.1077 33.2717 43.5601 32.8194C44.0124 32.3672 44.7457 32.367 45.198 32.8194L49.1874 36.8087L50.9741 35.0222L48.6968 32.7452C48.2445 32.293 48.2445 31.5597 48.6968 31.1073C49.1491 30.6551 49.8825 30.655 50.3348 31.1073L52.612 33.3843L54.3985 31.5979L50.4091 27.6086C49.9567 27.1564 49.9567 26.423 50.4091 25.9707C50.8615 25.5185 51.5948 25.5185 52.047 25.9707L56.0365 29.96L57.6749 28.3191C58.1692 27.8248 58.4414 27.1675 58.4414 26.4684C58.4414 25.7694 58.1691 25.1123 57.6749 24.6179L52.2361 19.1797C51.7418 18.6853 51.0845 18.4131 50.3855 18.4131C49.6864 18.4131 49.0292 18.6852 48.5348 19.1796L19.6767 48.0384C19.1824 48.5326 18.9102 49.1899 18.9102 49.8889C18.9102 50.5879 19.1824 51.2451 19.6767 51.7394L25.1155 57.1778C25.6098 57.6721 26.267 57.9444 26.9661 57.9444C27.6653 57.9444 28.3225 57.6721 28.8168 57.1779L30.4578 55.5371L28.1806 53.2601C27.7283 52.8079 27.7283 52.0745 28.1806 51.6222C28.6329 51.17 29.3663 51.17 29.8186 51.6222L32.0957 53.8992L33.8823 52.1128L29.8928 48.1236C29.4405 47.6714 29.4405 46.9381 29.8928 46.4858C30.3451 46.0336 31.0785 46.0336 31.5308 46.4858L35.5202 50.4749L37.3068 48.6884L35.0296 46.4114C34.5773 45.9592 34.5773 45.226 35.0296 44.7736C35.482 44.3214 36.2153 44.3212 36.6676 44.7736L38.9448 47.0506L40.7314 45.2641L36.7419 41.2749C36.2896 40.8227 36.2896 40.0894 36.742 39.6371Z" fill="#247459"/>
</g>
<defs>
<clipPath id="clip0_2476_703">
<rect width="39.5313" height="39.5313" fill="white" transform="translate(18.9102 18.4131)"/>
</clipPath>
</defs>
</svg>
