<svg width="77" height="76" viewBox="0 0 77 76" fill="none" xmlns="http://www.w3.org/2000/svg">
<rect x="0.734375" y="0.53125" width="75.4689" height="75.4689" rx="37.7344" fill="#FFD99A"/>
<g clip-path="url(#clip0_2476_720)">
<path d="M23.7194 29.4803C23.1038 29.1248 22.317 29.3359 21.9618 29.9512C21.6062 30.5668 21.8173 31.3536 22.4326 31.7088C23.0479 32.0644 23.835 31.8532 24.1903 31.238C24.5458 30.6224 24.3347 29.8355 23.7194 29.4803Z" fill="#247459"/>
<path d="M56.5337 26.7348H55.2469V25.448C55.2469 24.7369 54.6715 24.1611 53.9601 24.1611C53.249 24.1611 52.6733 24.7369 52.6733 25.448V26.7348H51.3864C50.6753 26.7348 50.0996 27.3105 50.0996 28.0216C50.0996 28.733 50.6753 29.3084 51.3864 29.3084H52.6733V30.5953C52.6733 31.3064 53.249 31.8821 53.9601 31.8821C54.6715 31.8821 55.2469 31.3064 55.2469 30.5953V29.3084H56.5337C57.2448 29.3084 57.8206 28.733 57.8206 28.0216C57.8206 27.3105 57.2448 26.7348 56.5337 26.7348Z" fill="#247459"/>
<path d="M21.7904 22.7886C21.7904 23.5001 22.3658 24.0754 23.0773 24.0754C23.7884 24.0754 24.3641 23.5001 24.3641 22.7886V21.5018H25.6509C26.362 21.5018 26.9377 20.9264 26.9377 20.215C26.9377 19.5039 26.362 18.9281 25.6509 18.9281H24.3641V17.6413C24.3641 16.9302 23.7884 16.3545 23.0773 16.3545C22.3658 16.3545 21.7904 16.9302 21.7904 17.6413V18.9281H20.5036C19.7925 18.9281 19.2168 19.5039 19.2168 20.215C19.2168 20.9264 19.7925 21.5018 20.5036 21.5018H21.7904V22.7886Z" fill="#247459"/>
<path d="M29.9171 18.7592C31.1419 21.2095 31.8222 23.9146 31.9935 26.6484H45.042C45.2129 23.9149 45.8932 21.2095 47.118 18.7592L47.3894 18.2163C47.6371 17.7214 47.5402 17.1232 47.1482 16.7311C46.7574 16.339 46.1593 16.2422 45.663 16.4898L41.3451 18.6486L39.4272 16.7311C38.9245 16.2285 38.1102 16.2285 37.6076 16.7311L35.6901 18.6486L31.3722 16.4895C30.8745 16.2422 30.2804 16.3377 29.8869 16.7311C29.4949 17.1229 29.398 17.721 29.6457 18.2163L29.9171 18.7592Z" fill="#247459"/>
<path d="M46.3962 29.3086H30.6387L25.6144 35.3895C23.1476 38.3767 21.7891 42.2435 21.7891 46.1231C21.7891 54.7221 28.3552 60.2779 38.5175 60.2779C48.68 60.2779 55.2462 54.7221 55.2462 46.1231C55.2462 42.2435 53.8876 38.4625 51.4196 35.4753L46.3962 29.3086ZM38.5037 42.6396C40.6327 42.6396 42.3642 44.3712 42.3642 46.5001C42.3642 48.1703 41.2918 49.5821 39.8043 50.119V51.2704C39.8043 51.9815 39.2289 52.5572 38.5175 52.5572C37.8064 52.5572 37.231 51.9815 37.231 51.2704V50.1277C35.729 49.5985 34.6432 48.1804 34.6432 46.5001C34.6432 45.7887 35.219 45.2133 35.9301 45.2133C36.6415 45.2133 37.2169 45.7887 37.2169 46.5001C37.2169 47.2102 37.794 47.7869 38.5037 47.7869C39.2138 47.7869 39.7905 47.2102 39.7905 46.5001C39.7905 45.79 39.2138 45.2133 38.5037 45.2133C36.3751 45.2133 34.6432 43.4814 34.6432 41.3528C34.6432 39.6722 35.729 38.2544 37.231 37.7252V35.8285C37.231 35.1174 37.8064 34.5417 38.5175 34.5417C39.2289 34.5417 39.8043 35.1174 39.8043 35.8285V37.7339C41.2918 38.2708 42.3642 39.6826 42.3642 41.3528C42.3642 42.0642 41.7888 42.6396 41.0774 42.6396C40.3663 42.6396 39.7905 42.0642 39.7905 41.3528C39.7905 40.643 39.2138 40.066 38.5037 40.066C37.794 40.066 37.2169 40.643 37.2169 41.3528C37.2169 42.0629 37.7936 42.6396 38.5037 42.6396Z" fill="#247459"/>
</g>
<defs>
<clipPath id="clip0_2476_720">
<rect width="43.9237" height="43.9237" fill="white" transform="translate(16.5566 16.3535)"/>
</clipPath>
</defs>
</svg>
